<?xml version="1.0" standalone="no"?>
<!DOCTYPE svg PUBLIC "-//W3C//DTD SVG 20010904//EN"
 "http://www.w3.org/TR/2001/REC-SVG-20010904/DTD/svg10.dtd">
<svg version="1.0" xmlns="http://www.w3.org/2000/svg"
 width="1280.000000pt" height="1006.000000pt" viewBox="0 0 1280.000000 1006.000000"
 preserveAspectRatio="xMidYMid meet">
<metadata>
Created by potrace 1.15, written by Peter Selinger 2001-2017
</metadata>
<g transform="translate(0.000000,1006.000000) scale(0.100000,-0.100000)"
fill="#ffffff" stroke="none">
<path d="M3053 8207 c-1673 -1019 -3042 -1857 -3043 -1864 0 -22 21 -25 128
-13 644 67 1859 478 3167 1071 325 147 983 476 1250 625 886 493 1436 915
1590 1223 l26 53 37 -63 c48 -83 251 -286 402 -403 135 -104 428 -300 620
-414 1433 -849 3987 -1852 5219 -2047 154 -25 332 -34 338 -17 3 7 4 15 1 17
-8 8 -6681 3685 -6687 3685 -3 -1 -1375 -834 -3048 -1853z"/>
<path d="M7555 6923 c-33 -9 -138 -17 -310 -23 -357 -12 -509 -38 -575 -100
-36 -33 -40 -75 -10 -113 29 -36 63 -44 260 -61 303 -27 437 -60 584 -148 105
-62 168 -127 242 -250 68 -112 116 -170 256 -305 44 -43 124 -134 178 -203
104 -134 161 -185 280 -249 83 -44 314 -139 400 -164 165 -48 353 -58 800 -43
273 9 367 3 496 -29 99 -26 302 -131 284 -148 -3 -3 -88 -48 -190 -102 -1212
-638 -2487 -1469 -3218 -2099 -285 -244 -522 -503 -603 -655 l-27 -53 -26 52
c-42 84 -90 151 -189 260 -474 532 -1734 1344 -3232 2085 -1219 602 -2206 972
-2772 1038 -103 12 -113 12 -113 -3 0 -11 481 -337 1374 -933 l1374 -916 7
-83 c7 -94 -8 -369 -31 -533 -31 -225 -100 -512 -173 -721 -25 -71 -68 -147
-191 -341 -49 -78 -41 -86 72 -76 210 18 392 0 610 -63 303 -87 677 -269 1048
-512 63 -41 216 -139 340 -217 308 -194 534 -344 800 -530 472 -332 532 -361
1185 -581 259 -87 318 -104 330 -94 8 7 15 17 15 22 0 19 -118 133 -235 228
-66 53 -295 228 -510 390 -644 484 -878 669 -1140 896 -297 259 -437 364 -647
484 -303 174 -587 252 -1085 296 -40 3 -73 8 -73 10 0 3 16 36 35 74 121 241
244 619 282 868 l8 52 1433 -955 c860 -573 1438 -953 1445 -948 7 3 683 477
1502 1053 820 575 1496 1050 1504 1055 21 12 9 -300 -24 -645 -14 -151 -24
-289 -22 -306 l5 -31 -131 -18 c-73 -9 -164 -25 -202 -35 -328 -84 -558 -280
-863 -735 -163 -244 -400 -660 -572 -1005 -169 -337 -246 -526 -252 -612 -2
-39 15 -70 30 -52 5 5 48 59 97 119 49 61 215 236 369 391 277 277 443 429
1091 999 383 337 758 680 898 822 l98 99 -25 125 c-34 165 -63 358 -81 532
-18 170 -31 523 -21 589 l7 47 521 366 c286 201 523 364 525 361 2 -2 13 -50
24 -107 28 -150 35 -456 16 -799 -8 -151 -13 -291 -11 -310 3 -19 7 -54 10
-77 11 -89 86 -132 139 -79 72 72 140 298 184 616 26 189 30 242 40 505 8 186
14 242 40 364 17 79 31 163 31 185 l0 42 711 499 712 500 -69 3 c-268 12 -876
-184 -1570 -505 l-170 -79 -70 44 c-239 150 -495 242 -999 357 -676 155 -892
222 -1188 371 -225 113 -370 213 -465 320 -27 30 -78 105 -113 167 -34 62 -85
135 -111 163 -56 60 -284 215 -313 213 -11 -1 -42 -8 -70 -16z"/>
<path d="M5682 6707 c-84 -26 -161 -149 -170 -267 -9 -132 30 -232 127 -331
125 -125 251 -163 556 -163 165 -1 193 1 215 17 13 9 39 17 58 17 45 0 80 25
93 69 15 51 -1 88 -47 107 -32 14 -41 13 -87 -3 -32 -11 -81 -18 -127 -18 -63
1 -86 6 -142 32 -76 36 -156 105 -191 167 -14 22 -36 88 -51 146 -33 130 -61
188 -105 217 -36 24 -76 28 -129 10z"/>
<path d="M10870 2927 c0 -7 16 -29 36 -48 72 -69 161 -253 251 -516 l45 -131
-37 -219 c-37 -218 -53 -279 -149 -545 -68 -190 -89 -303 -89 -478 0 -101 5
-165 16 -212 76 -310 312 -543 667 -659 47 -15 86 -26 88 -25 1 2 -15 35 -37
73 -185 327 -282 762 -252 1131 20 251 53 373 141 522 70 119 75 137 74 275
-1 303 -65 498 -214 646 -118 117 -259 177 -457 193 -66 5 -83 4 -83 -7z"/>
<path d="M10470 2823 c-325 -52 -535 -211 -600 -453 -39 -144 -52 -396 -26
-484 8 -25 37 -85 65 -132 90 -150 128 -304 138 -559 4 -116 2 -173 -11 -250
-45 -267 -174 -515 -359 -693 -40 -38 -59 -62 -49 -62 10 0 58 7 107 15 387
62 658 252 750 523 71 210 47 440 -79 775 -29 78 -61 172 -70 209 -28 114 -78
431 -73 468 7 53 81 235 134 328 52 92 146 201 205 238 21 14 62 31 91 38 33
8 53 19 55 30 3 14 -11 16 -125 15 -70 -1 -139 -4 -153 -6z"/>
</g>
</svg>
